<svg xmlns="http://www.w3.org/2000/svg" viewBox="0 0 210.17 65.59"><title>BIB-logo-whiteAsset 1</title><g id="b5259b3f-e6ff-4758-bf6e-72d23cb97ef5" data-name="Layer 2"><g id="b6e303c7-4d24-4cd8-aa25-074d6a39ac35" data-name="Layer 1"><path d="M75.16,0H101.3V32.05H75.16C76.32,26.59,80,21.22,83.57,17.1,79.5,12.31,75.92,6.31,75.16,0ZM98,3.27H79.1C82.05,12,90,20.77,98,25.29ZM85.68,19.7a36.93,36.93,0,0,0-6.22,9.13l18.57,0C95.17,28.07,86.89,21.22,85.68,19.7Z" transform="translate(-1.37)" fill="#fff"/><path d="M105.75,32.05V0H109V32.05Z" transform="translate(-1.37)" fill="#fff"/><path d="M131.54,17.1c3.63,4.12,7.25,9.49,8.42,14.95H113.81V0H140C139.2,6.31,135.62,12.31,131.54,17.1Zm-14.46,8.19c8-4.52,16-13.34,18.94-22H117.08Zm0,3.5,18.58,0a36.93,36.93,0,0,0-6.22-9.13C128.23,21.22,120,28.07,117.08,28.79Z" transform="translate(-1.37)" fill="#fff"/><path d="M8,65.38c-1.39,0-2.11,0-3.07,0-1.25,0-1.92,0-3.46,0l-.07-.22a1.67,1.67,0,0,0,.77-1.47V50a1.35,1.35,0,0,0-.79-1.2l.14-.28c.75,0,2.07,0,2.81,0l2.95,0c3.44,0,6.1,1.24,6.1,3.81,0,1.95-1.51,3-3.15,3.6V56c2.72.56,4.61,1.88,4.61,4.49C14.83,63.72,11.67,65.38,8,65.38ZM6.74,50.09c-.6,0-1.17,0-1.7,0v5.28H6.55c2.47,0,3.84-.88,3.84-2.76C10.39,50.93,9,50.09,6.74,50.09ZM7.18,57H5v6.79c.79,0,1.66.1,2.69.1,2.49,0,4.13-1.08,4.13-3.34S10.08,57,7.18,57Z" transform="translate(-1.37)" fill="#fff"/><path d="M29.86,62.23A18.89,18.89,0,0,0,28,65.38c-2.45,0-3.6,0-6.05,0-1.92,0-3.1,0-4.92,0L17,65.21a1.94,1.94,0,0,0,.74-1.59V50.3c0-.93-.19-1.29-.81-1.51l.12-.26c.43,0,1.32,0,1.92,0s2,0,2.42,0l.07.26a1.3,1.3,0,0,0-.79,1.37V63.57h4.8c2.35,0,3-.45,4.13-1.53Z" transform="translate(-1.37)" fill="#fff"/><path d="M45.13,50.23v8.86c0,4.15-2.79,6.41-6.82,6.41-3.74,0-6.62-2.09-6.62-5.89V50.93c0-1.16-.2-1.83-.82-2.19l.05-.24c.74,0,1.34.07,2.09.07.48,0,1.6,0,2.2,0l.08.19c-.53.41-.68.86-.68,2V59.4c0,2.83,1.49,4.39,4.08,4.39,2.84,0,4.42-1.78,4.42-4.58V50.35a1.58,1.58,0,0,0-.86-1.63l0-.19c.39,0,1.2,0,1.59,0s1.73,0,2.06,0l.05.16A1.61,1.61,0,0,0,45.13,50.23Z" transform="translate(-1.37)" fill="#fff"/><path d="M59.84,65.38c-2,0-2.91,0-4.9,0-2.43,0-4.06,0-6.46.07l-.09-.19a1.76,1.76,0,0,0,.76-1.73V50.28c0-.82-.14-1.27-.79-1.56l.07-.24c2.36.12,3.22.09,5.57.09,2.16,0,4.2,0,6.36-.12a19.24,19.24,0,0,0-1,2.24c-.26-.29-.79-.41-2.35-.41h-4.9V55h1.8a7.81,7.81,0,0,0,3.29-.36l.15.12A11.84,11.84,0,0,0,56.26,57a6.72,6.72,0,0,0-2.64-.29H52.08v7h4.27c3.13,0,4.06-.53,5-1.46l.21.17A16.41,16.41,0,0,0,59.84,65.38Z" transform="translate(-1.37)" fill="#fff"/><path d="M74.07,65.38c-.6,0-1.78,0-2.38,0s-1.85,0-2.47,0l0-.24a1.42,1.42,0,0,0,1-1.49V50.35c0-.94-.29-1.34-.91-1.58l.1-.24c.6,0,1.65,0,2.25,0s1.83,0,2.38,0l.09.21a1.42,1.42,0,0,0-1,1.44V63.62a1.49,1.49,0,0,0,1,1.52Z" transform="translate(-1.37)" fill="#fff"/><path d="M92.37,65.52c-4.34,0-7.58-3-9.91-8H80.54v5.93a1.52,1.52,0,0,0,1,1.7l-.12.27c-.77-.08-1.75,0-2.42,0s-1.44,0-2.14,0l-.09-.22a1.5,1.5,0,0,0,.81-1.56V50.25a1.64,1.64,0,0,0-.86-1.51l.07-.21c1.2,0,2.11,0,3.31,0l4.54,0c3.31,0,5.73,1.54,5.73,4.18,0,2.44-1.87,4-4.63,4.53,2,4.63,4.61,7.71,7.56,7.71a4.54,4.54,0,0,0,1-.07l.08.31A6.54,6.54,0,0,1,92.37,65.52ZM83.52,50.18c-1.08,0-1.59,0-3,0v5.59c.84,0,1.7,0,2.57,0,2.45,0,4.22-.89,4.22-3C87.33,51.05,85.87,50.18,83.52,50.18Z" transform="translate(-1.37)" fill="#fff"/><path d="M100.69,65.38c-.6,0-1.77,0-2.37,0s-1.85,0-2.47,0l0-.24a1.43,1.43,0,0,0,1-1.49V50.35c0-.94-.29-1.34-.91-1.58l.09-.24c.6,0,1.66,0,2.26,0s1.82,0,2.38,0l.09.21a1.42,1.42,0,0,0-1,1.44V63.62a1.49,1.49,0,0,0,1,1.52Z" transform="translate(-1.37)" fill="#fff"/><path d="M108.89,65.5a13.36,13.36,0,0,1-5.81-1.18l-.14-3.43.38-.08c1,1.88,2.91,3,6,3,2.64,0,4.13-1,4.13-2.86,0-1.68-.93-2.5-4.17-3.24-4.2-1-5.48-2.21-5.48-4.73s2.31-4.56,6.1-4.56a14.57,14.57,0,0,1,5.14.82l-.24,2.64-.36,0c-.94-1.08-2.48-1.82-5-1.82-2.14,0-2.93,1-2.93,2,0,1.2.5,1.95,4.13,2.79,4.13,1,5.52,2.47,5.52,5.13C116.07,63.41,112.9,65.5,108.89,65.5Z" transform="translate(-1.37)" fill="#fff"/><path d="M131.45,65.38c-1.39,0-2.11,0-3.07,0-1.25,0-1.92,0-3.46,0l-.07-.22a1.67,1.67,0,0,0,.77-1.47V50a1.35,1.35,0,0,0-.79-1.2l.14-.28c.74,0,2.06,0,2.81,0l2.95,0c3.43,0,6.1,1.24,6.1,3.81,0,1.95-1.52,3-3.15,3.6V56c2.71.56,4.61,1.88,4.61,4.49C138.29,63.72,135.12,65.38,131.45,65.38ZM130.2,50.09c-.6,0-1.17,0-1.7,0v5.28H130c2.47,0,3.84-.88,3.84-2.76C133.85,50.93,132.43,50.09,130.2,50.09Zm.43,6.86H128.5v6.79c.79,0,1.65.1,2.69.1,2.49,0,4.12-1.08,4.12-3.34S133.54,57,130.63,57Z" transform="translate(-1.37)" fill="#fff"/><path d="M149.31,65.59c-5,0-9.15-3.26-9.15-8.38,0-5.37,4.32-8.9,9.29-8.9s9.15,3.26,9.15,8.38C158.6,62.06,154.28,65.59,149.31,65.59Zm0-15.6c-3.67,0-6,3-6,7s2.69,6.89,6.22,6.89,6-3,6-7S152.81,50,149.28,50Z" transform="translate(-1.37)" fill="#fff"/><path d="M170,65.59c-5,0-9.14-3.26-9.14-8.38,0-5.37,4.32-8.9,9.28-8.9s9.15,3.26,9.15,8.38C179.24,62.06,174.92,65.59,170,65.59Zm0-15.6c-3.67,0-6,3-6,7s2.69,6.89,6.22,6.89,6-3,6-7S173.46,50,169.93,50Z" transform="translate(-1.37)" fill="#fff"/><path d="M197.2,65.38c-.67,0-2.08,0-2.76,0s-2.08,0-2.76,0l0-.22c.36-.17.5-.34.5-.65a3.93,3.93,0,0,0-.84-1.65l-3.89-5.26-2.09,2.52v3.67a1.46,1.46,0,0,0,.84,1.37l0,.22c-.61,0-1.54,0-2.14,0s-2,0-2.45,0l0-.27a1.33,1.33,0,0,0,.88-1.32V50.23c0-.72-.16-1.27-.79-1.46l.08-.24c.67,0,1.58,0,2.25,0s1.58,0,2.14,0l.07.21a1.49,1.49,0,0,0-.82,1.56v7.42l5.74-7a3.57,3.57,0,0,0,.82-1.39c0-.29-.15-.45-.48-.6l.09-.21c.51,0,1.27,0,1.87,0,.41,0,1.61,0,2,0l.07.21a5.12,5.12,0,0,0-2,1.71l-4.18,5,5.91,7.9a4.67,4.67,0,0,0,2.09,1.85Z" transform="translate(-1.37)" fill="#fff"/><path d="M204.37,65.5a13.33,13.33,0,0,1-5.81-1.18l-.15-3.43.39-.08c1,1.88,2.9,3,5.95,3,2.64,0,4.13-1,4.13-2.86,0-1.68-.94-2.5-4.18-3.24-4.2-1-5.47-2.21-5.47-4.73s2.3-4.56,6.1-4.56a14.52,14.52,0,0,1,5.13.82l-.24,2.64-.36,0c-.93-1.08-2.47-1.82-5-1.82-2.14,0-2.93,1-2.93,2,0,1.2.51,1.95,4.13,2.79,4.13,1,5.52,2.47,5.52,5.13C211.54,63.41,208.37,65.5,204.37,65.5Z" transform="translate(-1.37)" fill="#fff"/></g></g></svg>