<svg xmlns="http://www.w3.org/2000/svg" viewBox="0 0 214.53 71.11"><defs><style>.cls-1,.cls-2{fill:#2e3192;}.cls-2{font-size:24px;font-family:GrandCentral-Bold, GrandCentral;font-weight:700;}.cls-3{letter-spacing:0em;}.cls-4{letter-spacing:0em;}.cls-5{letter-spacing:-0.01em;}.cls-6{letter-spacing:-0.1em;}.cls-7{letter-spacing:-0.01em;}.cls-8{letter-spacing:0.03em;}.cls-9{letter-spacing:-0.01em;}.cls-10{letter-spacing:-0.1em;}.cls-11{letter-spacing:0em;}.cls-12{letter-spacing:0.01em;}</style></defs><title>Asset 3</title><g id="Layer_2" data-name="Layer 2"><g id="Layer_1-2" data-name="Layer 1"><path class="cls-1" d="M75.16,0H101.3V32.05H75.16C76.32,26.59,80,21.22,83.57,17.1,79.5,12.31,75.92,6.31,75.16,0ZM98,3.27H79.1C82.05,12,90,20.77,98,25.29ZM85.68,19.7a36.93,36.93,0,0,0-6.22,9.13l18.57,0C95.17,28.07,86.89,21.22,85.68,19.7Z"/><path class="cls-1" d="M105.75,32.05V0H109V32.05Z"/><path class="cls-1" d="M131.54,17.1c3.63,4.12,7.25,9.49,8.42,14.95H113.81V0H140C139.2,6.31,135.62,12.31,131.54,17.1Zm-14.46,8.19c8-4.52,16-13.34,18.94-22H117.08Zm0,3.5,18.58,0a36.93,36.93,0,0,0-6.22-9.13C128.23,21.22,120,28.07,117.08,28.79Z"/><text class="cls-2" transform="translate(0 65.35)"><tspan class="cls-3">B</tspan><tspan class="cls-4" x="15.6" y="0">L</tspan><tspan class="cls-5" x="29.67" y="0">U</tspan><tspan x="46.99" y="0">E</tspan><tspan class="cls-6" x="61.59" y="0"> </tspan><tspan class="cls-7" x="67.83" y="0">I</tspan><tspan class="cls-8" x="75.31" y="0">r</tspan><tspan class="cls-9" x="94.45" y="0">i</tspan><tspan x="101.98" y="0">s</tspan><tspan class="cls-10" x="117.22" y="0"> </tspan><tspan class="cls-11" x="123.46" y="0">B</tspan><tspan class="cls-4" x="139.01" y="0">O</tspan><tspan class="cls-9" x="159.65" y="0">O</tspan><tspan class="cls-12" x="180.23" y="0">K</tspan><tspan x="197.45" y="0">S</tspan></text></g></g></svg>